/* XPM */
static char *result[] = {
/* columns rows colors chars-per-pixel */
"50 50 7 1 ",
"  c #966730",
". c #AF7D43",
"X c #B4834C",
"o c #B5844C",
"O c #B78851",
"+ c #CFA679",
"@ c #DDB992",
/* pixels */
"@@@@@@@@@@@@@@@@@@@@@@@@@@@@@@@@@@@@@@@@@@@@@@@@@@",
"@@@@@@@@@@@@@@@@@@@@@@@@@@@@@@@@@@@@@@@@@@@@@@@@@@",
"@@@@@@@@@@@@@@@@@@@@@@@@@@@@@@@@@@@@@@@@@@@@@@@@@@",
"@@@@@@@@@@@@@@@@@@@@@@@@@@@@@@@@@@@@@@@@@@@@@@@@@@",
"@@@@@@@@@@@+O........................o+@@@@@@@@@@@",
"@@@@@@@@@@@o..........................O@@@@@@@@@@@",
"@@@@@@@@@@@............................@@@@@@@@@@@",
"@@@@@@@@@@@............................@@@@@@@@@@@",
"@@@@@@@@@@@....                    ....@@@@@@@@@@@",
"@@@@@@@@@@@....                    ....@@@@@@@@@@@",
"@@@@@@@@@@@....                    ....@@@@@@@@@@@",
"@@@@@@@@@@@....                    ....@@@@@@@@@@@",
"@@@@@@@@@@@....                    ....@@@@@@@@@@@",
"@@@@@@@@@@@....                    ....@@@@@@@@@@@",
"@@@@@@@@@@@....                    ....@@@@@@@@@@@",
"@@@@@@@@@@@....                    ....@@@@@@@@@@@",
"@@@@@@@@@@@....                    ....@@@@@@@@@@@",
"@@@@@@@@@@@....                    ....@@@@@@@@@@@",
"@@@@@@@@@@@....                    ....@@@@@@@@@@@",
"@@@@@@@@@@@....                    ....@@@@@@@@@@@",
"@@@@@@@@@@@....                    ....@@@@@@@@@@@",
"@@@@@@@@@@@....                    ....@@@@@@@@@@@",
"@@@@@@@@@@@....                    ....@@@@@@@@@@@",
"@@@@@@@@@@@....                    ....@@@@@@@@@@@",
"@@@@@@@@@@@....                    ....@@@@@@@@@@@",
"@@@@@@@@@@@....                    ....@@@@@@@@@@@",
"@@@@@@@@@@@....                    ....@@@@@@@@@@@",
"@@@@@@@@@@@....                    ....@@@@@@@@@@@",
"@@@@@@@@@@@....                    ....@@@@@@@@@@@",
"@@@@@@@@@@@....                    ....@@@@@@@@@@@",
"@@@@@@@@@@@....                    ....@@@@@@@@@@@",
"@@@@@@@@@@@....                    ....@@@@@@@@@@@",
"@@@@@@@@@@@....                    ....@@@@@@@@@@@",
"@@@@@@@@@@@....                    ....@@@@@@@@@@@",
"@@@@@@@@@@@....                    ....@@@@@@@@@@@",
"@@@@@@@@@@@....                    ....@@@@@@@@@@@",
"@@@@@@@@@@@....                    ....@@@@@@@@@@@",
"@@@@@@@@@@@....                    ....@@@@@@@@@@@",
"@@@@@@@@@@@....                    ....@@@@@@@@@@@",
"@@@@@@@@@@@....                    ....@@@@@@@@@@@",
"@@@@@@@@@@@....                    ....@@@@@@@@@@@",
"@@@@@@@@@@@....                    ....@@@@@@@@@@@",
"@@@@@@@@@@@............................@@@@@@@@@@@",
"@@@@@@@@@@@............................@@@@@@@@@@@",
"@@@@@@@@@@@X..........................O@@@@@@@@@@@",
"@@@@@@@@@@@+O........................X+@@@@@@@@@@@",
"@@@@@@@@@@@@@@@@@@@@@@@@@@@@@@@@@@@@@@@@@@@@@@@@@@",
"@@@@@@@@@@@@@@@@@@@@@@@@@@@@@@@@@@@@@@@@@@@@@@@@@@",
"@@@@@@@@@@@@@@@@@@@@@@@@@@@@@@@@@@@@@@@@@@@@@@@@@@",
"@@@@@@@@@@@@@@@@@@@@@@@@@@@@@@@@@@@@@@@@@@@@@@@@@@"
};
