/* XPM */
static char *result[] = {
/* columns rows colors chars-per-pixel */
"50 50 16 1 ",
"  c #E8DD39",
". c #FCEE21",
"X c #F5E829",
"o c #EFE331",
"O c #BAB571",
"+ c #B3B079",
"@ c #C1BB69",
"# c #DBD249",
"$ c #CEC659",
"% c #D4CC51",
"& c #E2D741",
"* c #C7C161",
"= c gray60",
"- c #A09F91",
"; c #ADAA81",
": c #A6A489",
/* pixels */
"==================================================",
"==================================================",
"==================================================",
"==================================================",
"==================================================",
"==================================================",
"==================================================",
"==================================================",
"==================================================",
"==================================================",
"=============================@.o;=================",
"=======================O%.......&=================",
"=====================; ..........=================",
"====================O............:================",
"===================@.............+================",
"==================O..............+================",
"=================;......&;== ....+================",
"=================o.....*====+...X-================",
"================$.....*======*.X+=================",
"===============;.....#============================",
"===============&....o-============================",
"==============+.....;=============================",
"==============&....%==============================",
"=============:....X-==============================",
"=============*....%===============================",
"=============#....;===============================",
"=============o...X================================",
"=============....#================================",
"============:....%================================",
"============:....%================================",
"=============.... ================================",
"============= ....:========-$..O==================",
"=============$.... =======@.....:=================",
"=============;..... +==:*o......+=================",
"==============%................o-=================",
"==============-o.............. :==================",
"===============;X............*====================",
"================:&.........#:=====================",
"==================O%....#*-=======================",
"==================================================",
"==================================================",
"==================================================",
"==================================================",
"==================================================",
"==================================================",
"==================================================",
"==================================================",
"==================================================",
"==================================================",
"=================================================="
};
