/* XPM */
static char *result[] = {
/* columns rows colors chars-per-pixel */
"50 50 119 2 ",
"   c #96672F",
".  c #966730",
"X  c #976730",
"o  c #976830",
"O  c #986830",
"+  c #986831",
"@  c #986931",
"#  c #9B6932",
"$  c #996A32",
"%  c #9B6B33",
"&  c #9C6A32",
"*  c #9C6B32",
"=  c #9D6B33",
"-  c #9D6C32",
";  c #9D6C33",
":  c #9E6C33",
">  c #9E6D33",
",  c #9C6D34",
"<  c #9D6C35",
"1  c #9F6D34",
"2  c #9F6E34",
"3  c #9E6E36",
"4  c #9F6F37",
"5  c #A06E34",
"6  c #A16E34",
"7  c #A16F35",
"8  c #A06F37",
"9  c #A37135",
"0  c #A37136",
"q  c #A47136",
"w  c #A57137",
"e  c #A67237",
"r  c #A77337",
"t  c #A17038",
"y  c #A17138",
"u  c #A27139",
"i  c #A37239",
"p  c #A87438",
"a  c #A87439",
"s  c #AA7539",
"d  c #AA7639",
"f  c #AB7639",
"g  c #AB773A",
"h  c #AC773A",
"j  c #AD773A",
"k  c #A8773E",
"l  c #A9773E",
"z  c #AC783A",
"x  c #AD793B",
"c  c #AE783B",
"v  c #AF793B",
"b  c #AF7A3B",
"n  c #AA783F",
"m  c #AA793F",
"M  c #AF793C",
"N  c #B07A3C",
"B  c #B17B3C",
"V  c #B27B3D",
"C  c #B37D3D",
"Z  c #B77F3F",
"A  c #AB7940",
"S  c #AC7A40",
"D  c #AD7B41",
"F  c #AD7B42",
"G  c #AF7D43",
"H  c #B8803F",
"J  c #B28147",
"K  c #B88040",
"L  c #B98040",
"P  c #BA8140",
"I  c #BA8141",
"U  c #BA8241",
"Y  c #BB8341",
"T  c #BC8241",
"R  c #BC8342",
"E  c #BE8342",
"W  c #BE8442",
"Q  c #BF8443",
"!  c #BF8543",
"~  c #BE8544",
"^  c #B18048",
"/  c #B4834C",
"(  c #B5844C",
")  c #B78851",
"_  c #BA8B57",
"`  c #B98C56",
"'  c #BC8F5B",
"]  c #BD8F5C",
"[  c #C08644",
"{  c #C28745",
"}  c #C38845",
"|  c #C38846",
" . c #C68A47",
".. c #C88C47",
"X. c #C88C48",
"o. c #C98C48",
"O. c #C98D48",
"+. c #C98D49",
"@. c #CA8E48",
"#. c #CB8F49",
"$. c #CC8F49",
"%. c #CC9049",
"&. c #CD904A",
"*. c #CD904B",
"=. c #CE914A",
"-. c #CF904B",
";. c #CF914B",
":. c #D0914B",
">. c #D0924C",
",. c #C09360",
"<. c #C39664",
"1. c #C69A69",
"2. c #C69B6B",
"3. c #CCA374",
"4. c #CCA275",
"5. c #D5AD83",
"6. c #D7B288",
"7. c #DAB58D",
"8. c #DDB992",
/* pixels */
"8.8.8.8.8.8.8.8.8.8.8.8.8.8.8.8.8.8.6.4.2._ _ ) G G ) _ _ 2.4.6.8.8.8.8.8.8.8.8.8.8.8.8.8.8.8.8.8.8.",
"8.8.8.8.8.8.8.8.8.8.8.8.8.8.8.5.2.) G G G G G G G G G G G G G G ) 2.5.8.8.8.8.8.8.8.8.8.8.8.8.8.8.8.",
"8.8.8.8.8.8.8.8.8.8.8.8.8.6.] G G G G G G G G G G G G G G G G G G G G ] 6.8.8.8.8.8.8.8.8.8.8.8.8.8.",
"8.8.8.8.8.8.8.8.8.8.8.6.,.G G G G G G G G G G G G G G G G G G G G G G G G ,.6.8.8.8.8.8.8.8.8.8.8.8.",
"8.8.8.8.8.8.8.8.8.8.3.J G G G G G G G m u < < % . . % < < u m G G G G G G G J 3.8.8.8.8.8.8.8.8.8.8.",
"8.8.8.8.8.8.8.8.8.2.G G G G G G k 8 @ . . . . . . . . . . . . @ 8 k G G G G G G 2.8.8.8.8.8.8.8.8.8.",
"8.8.8.8.8.8.8.7.,.G G G G G A 3 . . . . . . . . . . . . . . . . . . 3 A G G G G G ,.7.8.8.8.8.8.8.8.",
"8.8.8.8.8.8.7.) G G G G G y . . . . . . . . . . . . . . . . . . . . . . y G G G G G ) 7.8.8.8.8.8.8.",
"8.8.8.8.8.8.,.G G G G F % . . . . . . . . . . . . . . . . . . . . . . . . % F G G G G ,.8.8.8.8.8.8.",
"8.8.8.8.8.1.G G G G m $ . . . . . . . . . . . . . . . . . . . . . . . . . . $ m G G G G 1.8.8.8.8.8.",
"8.8.8.8.3.G G G G m @ . . . . . . . . . . . . . . . . . . . . . . . . . . . . @ m G G G G 3.8.8.8.8.",
"8.8.8.6.J G G G F @ . . . . . . . . . . . . . X - - . . . . . . . . . . . . . . $ F G G G J 7.8.8.8.",
"8.8.8.,.G G G G % . . . . . . . . . . . . . . * >.>.o . . . . . . . . . . . . . . % G G G G ,.8.8.8.",
"8.8.6.G G G G y . . . . . . . . . . . . O 0 c I >.>.K x q X . . . . . . . . . . . . y G G G G 6.8.8.",
"8.8.] G G G A . . . . . . . . . . . . s +.>.>.>.>.>.>.>.>.X.h   . . . . . . . . . . . A G G G ] 8.8.",
"8.5.G G G G 3 . . . . . . . . . . . T >.>.>.>.>.>.>.>.>.>.>.>.K . . . . . . . . . . . 3 G G G G 5.8.",
"8.1.G G G k . . . . . . . . . . . z >.>.>.>.>.>.>.>.>.>.>.>.>.>.v . . . . . . . . . . . k G G G 1.8.",
"8.) G G G 8 . . . . . . . . . .   $.>.>.>.>.+.b >.>.Z :.>.>.>.>.o.  . . . . . . . . . . 8 G G G ) 8.",
"6.G G G G @ . . . . . . . . . . > >.>.>.>.>.g * >.>.o U >.>.;...~ ; . . . . . . . . . . @ G G G G 7.",
"3.G G G m . . . . . . . . . . . p >.>.>.>.>.c * >.>.o * s 7 O . . . . . . . . . . . . . . m G G G 3.",
"1.G G G u . . . . . . . . . . . w >.>.>.>.>.#.V >.>.o . . . . . . . . . . . . . . . . . . u G G G 1.",
"` G G G < . . . . . . . . . . . # -.>.>.>.>.>.>.>.>.M % . . . . . . . . . . . . . . . . . < G G G ` ",
"` G G G < . . . . . . . . . . . . P >.>.>.>.>.>.>.>.>.:.} v + . . . . . . . . . . . . . . < G G G ` ",
"( G G G $ . . . . . . . . . . . . + Q >.>.>.>.>.>.>.>.>.>.>.O.d . . . . . . . . . . . . . % G G G ) ",
"G G G G . . . . . . . . . . . . . . X K ;.>.>.>.>.>.>.>.>.>.>.>.j . . . . . . . . . . . . . G G G G ",
"G G G G . . . . . . . . . . . . . . . . - B | :.>.>.>.>.>.>.>.>.&.5 . . . . . . . . . . . . G G G G ",
"/ G G G $ . . . . . . . . . . . . . . . . . . 6 >.>.=.>.>.>.>.>.>.Z . . . . . . . . . . . % G G G ) ",
"` G G G < . . . . . . . . . . . . . . . . . . * >.>.* H >.>.>.>.>.{ . . . . . . . . . . . < G G G ` ",
"` G G G < . . . . . . . . . . O w f B L ! R . * >.>.o .  .>.>.>.>.+.. . . . . . . . . . . < G G G ` ",
"<.G G G y . . . . . . . . . . O *.>.>.>.>.;.& * >.>.o . ~ >.>.>.>.W . . . . . . . . . . . u G G G 1.",
"3.G G G n . . . . . . . . . . . E >.>.>.>.>.! 2 >.>.o 9 ;.>.>.>.>.N . . . . . . . . . . . n G G G 3.",
"6.G G G G @ . . . . . . . . . . e :.>.>.>.>.>.@.>.>.[ >.>.>.>.>.&.: . . . . . . . . . . @ G G G G 7.",
"8.) G G G 8 . . . . . . . . . . . C >.>.>.>.>.>.>.>.>.>.>.>.>.:.a . . . . . . . . . . . 8 G G G ) 8.",
"8.1.G G G l . . . . . . . . . . .   C =.>.>.>.>.>.>.>.>.>.>.=.M . . . . . . . . . . . . l G G G 1.8.",
"8.5.G G G G 3 . . . . . . . . . . . . > R %.>.>.>.>.>.>.*.Y ; . . . . . . . . . . . . 3 G G G G 5.8.",
"8.8.' G G G S . . . . . . . . . . . . . . X 1 f >.>.r ;   . . . . . . . . . . . . . . S G G G ' 8.8.",
"8.8.6.G G G G y . . . . . . . . . . . . . . . * >.>.o . . . . . . . . . . . . . . . y G G G G 6.8.8.",
"8.8.8.,.G G G G % . . . . . . . . . . . . . . * >.>.o . . . . . . . . . . . . . . % G G G G ,.8.8.8.",
"8.8.8.6.^ G G G D $ . . . . . . . . . . . . . X = = . . . . . . . . . . . . . . $ D G G G ^ 7.8.8.8.",
"8.8.8.8.3.G G G G n @ . . . . . . . . . . . . . . . . . . . . . . . . . . . . @ n G G G G 3.8.8.8.8.",
"8.8.8.8.8.1.G G G G n $ . . . . . . . . . . . . . . . . . . . . . . . . . . $ n G G G G 1.8.8.8.8.8.",
"8.8.8.8.8.8.,.G G G G D % . . . . . . . . . . . . . . . . . . . . . . . . % D G G G G ,.8.8.8.8.8.8.",
"8.8.8.8.8.8.7.) G G G G G t . . . . . . . . . . . . . . . . . . . . . . t G G G G G ) 7.8.8.8.8.8.8.",
"8.8.8.8.8.8.8.7.,.G G G G G S 3 . . . . . . . . . . . . . . . . . . 3 S G G G G G ,.7.8.8.8.8.8.8.8.",
"8.8.8.8.8.8.8.8.8.1.G G G G G G l 4 @ . . . . . . . . . . . . @ 4 l G G G G G G 1.8.8.8.8.8.8.8.8.8.",
"8.8.8.8.8.8.8.8.8.8.3.^ G G G G G G G n i , , % . . % , , i n G G G G G G G ^ 3.8.8.8.8.8.8.8.8.8.8.",
"8.8.8.8.8.8.8.8.8.8.8.7.,.G G G G G G G G G G G G G G G G G G G G G G G G ,.7.8.8.8.8.8.8.8.8.8.8.8.",
"8.8.8.8.8.8.8.8.8.8.8.8.8.6.' G G G G G G G G G G G G G G G G G G G G ' 6.8.8.8.8.8.8.8.8.8.8.8.8.8.",
"8.8.8.8.8.8.8.8.8.8.8.8.8.8.8.5.1.) G G G G G G G G G G G G G G ) 1.5.8.8.8.8.8.8.8.8.8.8.8.8.8.8.8.",
"8.8.8.8.8.8.8.8.8.8.8.8.8.8.8.8.8.8.6.3.1.` ` ) G G ) ` ` 1.3.7.8.8.8.8.8.8.8.8.8.8.8.8.8.8.8.8.8.8."
};
