/* XPM */
static char *result[] = {
/* columns rows colors chars-per-pixel */
"50 50 33 1 ",
"  c #966730",
". c #9A6C36",
"X c #9E713C",
"o c #9F713C",
"O c #A37642",
"+ c #A77B48",
"@ c #A87B48",
"# c #AC804E",
"$ c #AC814E",
"% c #AC804F",
"& c #AC814F",
"* c #B08555",
"= c #B18654",
"- c #B08655",
"; c #B58B5B",
": c #B99061",
"> c #BA9061",
", c #BE9567",
"< c #C29A6D",
"1 c #C69F73",
"2 c #C79F73",
"3 c #CBA479",
"4 c #CFA97F",
"5 c #D0A97F",
"6 c #CFAA80",
"7 c #D4AE85",
"8 c #D4AF85",
"9 c #D4AE86",
"0 c #D4AF86",
"q c #D8B48B",
"w c #D8B48C",
"e c #D9B48C",
"r c #DDB992",
/* pixels */
"rrrrrrrrrrrrrrrrrrrrrrrrrrrrrrrrrrrrrrrrrrrrrrrrrr",
"rrrrrrrrrrrrrrrrrrrrrrrrrrrrrrrrrrrrrrrrrrrrrrrrrr",
"rrrrrrrrrrrrrrrrrrrrrrrrrrrrrrrrrrrrrrrrrrrrrrrrrr",
"rrrrrrrrrrrrrrrrrrrrrrrrrrrrrrrrrrrrrrrrrrrrrrrrrr",
"rrrrrrrrrrrrrrrrrrrrrrrrrrrrrrrrrrrrrrrrrrrrrrrrrr",
"rrrrrrrrrrrrrrrrrrrrrrrrrrrrrrrrrrrrrrrrrrrrrrrrrr",
"rrrrrrrrrrrrrrrrrrrrrrrrrrrrrrrrrrrrrrrrrrrrrrrrrr",
"rrrrrrrrrrrrrrrrrrrrrrrrrrrrrrrrrrrrrrrrrrrrrrrrrr",
"rrrrrrrrrrrrrrrrrrrrrrrrrrrrrrrrrrrrrrrrrrrrrrrrrr",
"rrrrrrrrrrrrrrrrrrrrrrrrrrrrrrrrrrrrrrrrrrrrrrrrrr",
"rrrrrrrrrrq@>7rrrrrrrrrrrrrrrr8@.6rrrrrrrrrrrrrrrr",
"rrrrrrrrrr@ooo<rrrrrrrrrrrrrr8oo.rro>rrrrrrrrrrrrr",
"rrrrrrrrrr#@r: rrrrrrrrrrrrrr=%=&r5  wrrrrrrrrrrrr",
"rrrrrrrrrr0.1>orrrrrrrrrrrrrr 3$;r=+O,rrrrrrrrrrrr",
"rrrrrrrrrrr:   <rrrrrrrrrrrre 9, @ <@:rrrrrrrrrrrr",
"rrrrrrrrrrrrwr: <rrrrrrrrrrrr 3r2:38.1rrrrrrrrrrrr",
"rrrrrrrrrrrrrrr: <rrrrrrrrrr5 wrrrq#orrrrrrrrrrrrr",
"rrrrrrrrrrrrrrrr: <rrrrrrrrr=+rrq>.o9rrrrrrrrrrrrr",
"rrrrrrrrrrrrrrrrr: <rrrrrrr> 9r5o+2rrrrrrrrrrrrrrr",
"rrrrrrrrrrrrrrrrrr: <rrrrr> <r5.;rrrrrrrrrrrrrrrrr",
"rrrrrrrrrrrrrrrrrrr: <rrr> <r5.:rrrrrrrrrrrrrrrrrr",
"rrrrrrrrrrrrrrrrrrrr: <r> <r5.:rrrrrrrrrrrrrrrrrrr",
"rrrrrrrrrrrrrrrrrrrrr: # <r5.:rrrrrrrrrrrrrrrrrrrr",
"rrrrrrrrrrrrrrrrrrrrrr@ <r5.:rrrrrrrrrrrrrrrrrrrrr",
"rrrrrrrrrrrrrrrrrrrrr> <r5.:rrrrrrrrrrrrrrrrrrrrrr",
"rrrrrrrrrrrrrrrrrrrr> <r5.&rrrrrrrrrrrrrrrrrrrrrrr",
"rrrrrrrrrrrrrrrrrrr> <r5.+ <r3:7rrrrrrrrrrrrrrrrrr",
"rrrrrrrrrrrrrrrrrr> <r5.:r: # o@rrrrrrrrrrrrrrrrrr",
"rrrrrrrrrrrrrrrrr> <r5.:rrr@ <2 4rrrrrrrrrrrrrrrrr",
"rrrrrrrrrrrrrrrr> <r5.:rrr< <5.+.4rrrrrrrrrrrrrrrr",
"rrrrrrrrrrrrrr5; <r8o:rrrr;O3.:r:.4rrrrrrrrrrrrrrr",
"rrrrrrrrrrrrq# +3rr=Orrrrr0o @rrr:.4rrrrrrrrrrrrrr",
"rrrrrrrrrrrr=o3rrrr 3rrrrrrr, >rrr:.4rrrrrrrrrrrrr",
"rrrrrrrrrrr3 9q<7r0 wrrrrrrrr< >rrr:.4rrrrrrrrrrrr",
"rrrrrrrrrrr:+8.X 30 wrrrrrrrrr< >rrr:.4rrrrrrrrrrr",
"rrrrrrrrrrr,O$*r-&5 wrrrrrrrrrr< >rrr:.4rrrrrrrrrr",
"rrrrrrrrrrr3  3r=&=Orrrrrrrrrrrr< >rrr;@rrrrrrrrrr",
"rrrrrrrrrrrr=orroo 3rrrrrrrrrrrrr< >rr<orrrrrrrrrr",
"rrrrrrrrrrrrr5r5 o3rrrrrrrrrrrrrrr< >2o*rrrrrrrrrr",
"rrrrrrrrrrrrrrrr7rrrrrrrrrrrrrrrrrr2o +wrrrrrrrrrr",
"rrrrrrrrrrrrrrrrrrrrrrrrrrrrrrrrrrrrrrrrrrrrrrrrrr",
"rrrrrrrrrrrrrrrrrrrrrrrrrrrrrrrrrrrrrrrrrrrrrrrrrr",
"rrrrrrrrrrrrrrrrrrrrrrrrrrrrrrrrrrrrrrrrrrrrrrrrrr",
"rrrrrrrrrrrrrrrrrrrrrrrrrrrrrrrrrrrrrrrrrrrrrrrrrr",
"rrrrrrrrrrrrrrrrrrrrrrrrrrrrrrrrrrrrrrrrrrrrrrrrrr",
"rrrrrrrrrrrrrrrrrrrrrrrrrrrrrrrrrrrrrrrrrrrrrrrrrr",
"rrrrrrrrrrrrrrrrrrrrrrrrrrrrrrrrrrrrrrrrrrrrrrrrrr",
"rrrrrrrrrrrrrrrrrrrrrrrrrrrrrrrrrrrrrrrrrrrrrrrrrr",
"rrrrrrrrrrrrrrrrrrrrrrrrrrrrrrrrrrrrrrrrrrrrrrrrrr",
"rrrrrrrrrrrrrrrrrrrrrrrrrrrrrrrrrrrrrrrrrrrrrrrrrr"
};
