/* XPM */
static char *result[] = {
/* columns rows colors chars-per-pixel */
"50 50 29 1 ",
"  c black",
". c #040301",
"X c #1B1712",
"o c #1C1712",
"O c #2C1F11",
"+ c #29221B",
"@ c #2A231B",
"# c #5A4022",
"$ c #5B4123",
"% c #624625",
"& c #634726",
"* c #855F33",
"= c #876033",
"- c #966730",
"; c #9B6B33",
": c #9C6D34",
"> c #9D6C35",
", c #A17038",
"< c #A17138",
"1 c #A8773E",
"2 c #A9773E",
"3 c #AA793F",
"4 c #AC7A40",
"5 c #AF7D43",
"6 c #A87D4B",
"7 c #977F64",
"8 c #DAB58D",
"9 c #DDB891",
"0 c #DDB992",
/* pixels */
"00000000000000000000000000000000000000000000000000",
"00000000000000000000000000000000000000000000000000",
"00000000000000000000000000000000000000000000000000",
"00000000000000000000000000000000009888900000000000",
"000000000007@            .#%%*55555555600000000000",
"00000000000o             O555555555555500000000000",
"00000000000              O555555555555500000000000",
"00000000000              O555555555315500000000000",
"00000000000              O5<;--------5500000000000",
"00000000000              O5>---------5500000000000",
"00000000000              O5>---------5500000000000",
"00000000000              O5>---------5500000000000",
"00000000000              O5>---------5500000000000",
"00000000000              O5>---------5500000000000",
"00000000000              O5>---------5500000000000",
"00000000000              O5>---------5500000000000",
"00000000000              O5>---------5500000000000",
"00000000000              O5>---------5500000000000",
"00000000000              O5>---------5500000000000",
"00000000000              O5>---------5500000000000",
"00000000000              O5>---------5500000000000",
"00000000000              O5>---------5500000000000",
"00000000000              O5>---------5500000000000",
"00000000000              O5>---------5500000000000",
"00000000000              O5>---------5500000000000",
"00000000000              O5>---------5500000000000",
"00000000000              O5>---------5500000000000",
"00000000000              O5>---------5500000000000",
"00000000000              O5>---------5500000000000",
"00000000000              O5>---------5500000000000",
"00000000000              O5>---------5500000000000",
"00000000000              O5>---------5500000000000",
"00000000000              O5>---------5500000000000",
"00000000000              O5>---------5500000000000",
"00000000000              O5>---------5500000000000",
"00000000000              O5>---------5500000000000",
"00000000000              O5>---------5500000000000",
"00000000000              O5>---------5500000000000",
"00000000000              O5>---------5500000000000",
"00000000000              O5>---------5500000000000",
"00000000000              O5>---------5500000000000",
"00000000000              O5,:--------5500000000000",
"00000000000              O555555555425500000000000",
"00000000000              O555555555555500000000000",
"00000000000X             O555555555555500000000000",
"000000000007+            .$&&=55555555600000000000",
"00000000000000000000000000000000009888900000000000",
"00000000000000000000000000000000000000000000000000",
"00000000000000000000000000000000000000000000000000",
"00000000000000000000000000000000000000000000000000"
};
