/* XPM */
static char *result[] = {
/* columns rows colors chars-per-pixel */
"50 50 6 1 ",
"  c gray44",
". c #966730",
"X c #AF7D43",
"o c #D0924C",
"O c #DDB992",
"+ c #FFCC90",
/* pixels */
"OOOOOOOOOOOOOOOOOOOOOOOOOOOOOOOOOOOOOOOOOOOOOOOOOO",
"OOOOOOOOOOOOOOOOOOOOOOOOOOOOOOOOOOOOOOOOOOOOOOOOOO",
"OOOOOOOOOOOOOOOXXXXXXXXXXXXXXXXXXXXXOOOOOOOOOOOOOO",
"OOOOOOOOOOOOOOOX...................XOOOOOOOOOOOOOO",
"OOOOOOOOOOOOOOOX...................XOOOOOOOOOOOOOO",
"OOOOOOOOOOOOOOOX...................XOOOOOOOOOOOOOO",
"OOOOOOOOOOOOOOOX...................XOOOOOOOOOOOOOO",
"OOOOOOOOOOOOOOOX...oooo....oooo....XOOOOOOOOOOOOOO",
"OOOOOOOOOOOOOOOX...o++o....o++o....XOOOOOOOOOOOOOO",
"OOOOOOOOOOOOOOOX...o++o....o++o....XOOOOOOOOOOOOOO",
"OOOOOOOOOOOOOOOX...oooo....oooo....XOOOOOOOOOOOOOO",
"OOOOOOOOOOOOOOOX...................XOOOOOOOOOOOOOO",
"OOOOOOOOOOOOOOOX...................XOOOOOOOOOOOOOO",
"OOOOOOOOOOOOOOOX...................XOOOOOOOOOOOOOO",
"OOOOOOOOOOOOOOOX...................XOOOOOOOOOOOOOO",
"OOOOOOOOOOOOOOOX.....ooooooooo.....XOOOOOOOOOOOOOO",
"OOOOOOOOOOOOOOOX...................XOOOOOOOOOOOOOO",
"OOOOOOOOOOOOOOOX...................XOOOOOOOOOOOOOO",
"OOOOOOOOOOOOOOOX...................XOOOOOOOOOOOOOO",
"OOOOOOOOOOOOOOOXXXXXXXXXXXXXXXXXXXXXOOOOOOOOOOOOOO",
"OOOOOOOOOOOOOOOOOOOOO         OOOOOOOOOOOOOOOOOOOO",
"OOOOOOOOOOOOOOOOOOOOO         OOOOOOOOOOOOOOOOOOOO",
"OOOOOOOOOOOOOOOOOXXXXXXXXXXXXXXXXXOOOOOOOOOOOOOOOO",
"OOOOOOOOOOOOOOOOOX...............XOOOOOOOOOOOOOOOO",
"OOOOOOOOOOOOOOOO X...............X OOOOOOOOOOOOOOO",
"OOOOOOOOOOOOOOO  X...............X  OOOOOOOOOOOOOO",
"OOOOOOOOOOOOOO   X...............X   OOOOOOOOOOOOO",
"OOOOOOOOOOOOO    X...............X    OOOOOOOOOOOO",
"OOOOOOOOOOOO.....X...............X.....OOOOOOOOOOO",
"OOOOOOOOOOOO.....X...............X.....OOOOOOOOOOO",
"OOOOOOOOOOOO....OX...............XO....OOOOOOOOOOO",
"OOOOOOOOOOOO....OX...............XO....OOOOOOOOOOO",
"OOOOOOOOOOOO....OX...............XO....OOOOOOOOOOO",
"OOOOOOOOOOOO....OX...............XO....OOOOOOOOOOO",
"OOOOOOOOOOOO....OX...............XO....OOOOOOOOOOO",
"OOOOOOOOOOOO....OX...............XO....OOOOOOOOOOO",
"OOOOOOOOOOOO....OX...............XO....OOOOOOOOOOO",
"OOOOOOOOOOOOOOOOOX...............XOOOOOOOOOOOOOOOO",
"OOOOOOOOOOOOOOOOOX...............XOOOOOOOOOOOOOOOO",
"OOOOOOOOOOOOOOOOOX...............XOOOOOOOOOOOOOOOO",
"OOOOOOOOOOOOOOOOOX...............XOOOOOOOOOOOOOOOO",
"OOOOOOOOOOOOOOOOOX...............XOOOOOOOOOOOOOOOO",
"OOOOOOOOOOOOOOOOOX...............XOOOOOOOOOOOOOOOO",
"OOOOOOOOOOOOOOOOOX...............XOOOOOOOOOOOOOOOO",
"OOOOOOOOOOOOOOOOOXXXXXXXXXXXXXXXXXOOOOOOOOOOOOOOOO",
"OOOOOOOOOOOOOOOOOO    OOOOOOO    OOOOOOOOOOOOOOOOO",
"OOOOOOOOOOOOOOOOO......OOOOO......OOOOOOOOOOOOOOOO",
"OOOOOOOOOOOOOOOOO......OOOOO......OOOOOOOOOOOOOOOO",
"OOOOOOOOOOOOOOOOOOOOOOOOOOOOOOOOOOOOOOOOOOOOOOOOOO",
"OOOOOOOOOOOOOOOOOOOOOOOOOOOOOOOOOOOOOOOOOOOOOOOOOO"
};
