/* XPM */
static char *result[] = {
/* columns rows colors chars-per-pixel */
"51 51 17 1 ",
"  c red",
". c #F80A0A",
"X c #EB1F1F",
"o c #F11414",
"O c #DD3333",
"+ c #D63D3D",
"@ c #E42929",
"# c #BB6666",
"$ c #AD7A7A",
"% c #B47070",
"& c #CF4747",
"* c #C95252",
"= c #C25C5C",
"- c gray60",
"; c #A78585",
": c #A08F8F",
"> c None",
/* pixels */
"-------------------------------------------------->",
"---------------------------------------------------",
"---------------------------------------------------",
"---------------------------------------------------",
"---------------------------------------------------",
"---------------------------------------------------",
"---------------------------------------------------",
"---------------------------------------------------",
"---------------------------------------------------",
"---------------------------------------------------",
"---------------------------------------------------",
"---------------------------------------------------",
"---------------------------------------------------",
"--------------------;*@     @*:--------------------",
"--------------------@          +-------------------",
"-------------------:            o$-----------------",
"-------------------%             .$----------------",
"-------------------%              o----------------",
"-------------------#    ;--:*o     =---------------",
"-------------------=    ;-----&    O---------------",
"-------------------=    ;------@   X---------------",
"-------------------=    ;------O   X---------------",
"-------------------*    :-----:.   O---------------",
"-------------------*    -----;X    *---------------",
"-------------------&   o---%&      ;---------------",
"-------------------+              &----------------",
"-------------------O             X-----------------",
"-------------------@            O------------------",
"-------------------X          o#-------------------",
"-------------------o       o*#---------------------",
"-------------------o   +---------------------------",
"-------------------.   +---------------------------",
"-------------------    +---------------------------",
"-------------------    +---------------------------",
"-------------------    +---------------------------",
"-------------------    +---------------------------",
"-------------------    +---------------------------",
"-------------------    +---------------------------",
"-------------------    &---------------------------",
"-------------------X   =---------------------------",
"-------------------$o O----------------------------",
"---------------------------------------------------",
"---------------------------------------------------",
"---------------------------------------------------",
"---------------------------------------------------",
"---------------------------------------------------",
"---------------------------------------------------",
"---------------------------------------------------",
"---------------------------------------------------",
"---------------------------------------------------",
">>>>>>>>>>>>>>>>>>>>>>>>>>>>>>>>>>>>>>>>>>>>>>>>>>>"
};
